<?xml version="1.0" encoding="UTF-8" standalone="no"?>
<!DOCTYPE svg PUBLIC "-//W3C//DTD SVG 1.1//EN" "http://www.w3.org/Graphics/SVG/1.1/DTD/svg11.dtd">
<svg width="100%" height="100%" viewBox="0 0 1262 1255" version="1.1" xmlns="http://www.w3.org/2000/svg" xmlns:xlink="http://www.w3.org/1999/xlink" xml:space="preserve" xmlns:serif="http://www.serif.com/" style="fill-rule:evenodd;clip-rule:evenodd;stroke-linecap:round;stroke-linejoin:round;stroke-miterlimit:0;">
    <g transform="matrix(1,0,0,1,-1461,-1183)">
        <g transform="matrix(0.85181,0,0,0.928129,317.252,225.348)">
            <rect x="1363.6" y="1050.85" width="1439.92" height="1314.5" style="fill:rgb(227,189,16);stroke:black;stroke-width:38.36px;"/>
        </g>
        <g transform="matrix(1,0,0,1,-539.916,21.5125)">
            <path d="M2624.42,1184.9L3226.11,1786.59L2624.42,2388.28L2022.73,1786.59L2624.42,1184.9Z" style="fill:rgb(255,15,0);stroke:black;stroke-width:34.17px;"/>
        </g>
        <g transform="matrix(1,0,0,1,424.818,734.193)">
            <path d="M1683.77,1130.29C1683.77,1130.29 1658.42,1112.44 1659.36,1106.81C1659.36,1106.81 1625.08,1106.34 1615.69,1149.54C1615.69,1149.54 1528.37,1223.25 1508.65,1201.18C1508.65,1201.18 1445.26,1205.41 1403.01,1138.27C1403.01,1138.27 1387.52,1027.47 1412.87,992.723C1412.87,992.723 1465.92,855.16 1477.19,906.805C1488.46,958.45 1478.6,946.243 1487.52,964.553C1496.44,982.864 1659.36,1069.72 1659.36,1069.72L1749.03,1126.53L1683.77,1130.29Z" style="fill:rgb(9,0,255);stroke:rgb(0,9,255);stroke-width:34.17px;"/>
            <path d="M1782.36,1135.92C1782.36,1135.92 1810.53,1137.33 1796.45,1163.62C1782.36,1189.91 1894.1,1145.31 1894.1,1145.31L1863.12,1100.71L1832.13,1052.35L1812.41,1002.58L1813.35,966.431L1797.86,941.078L1812.41,1002.58L1772.5,1007.28C1772.5,1007.28 1751.85,901.641 1767.81,971.596C1783.77,1041.55 1773.91,1082.87 1773.91,1082.87L1760.77,1109.63L1723.68,1066.9L1757.01,1035.92L1772.5,1007.28L1731.66,1021.36L1693.16,1043.43L1723.68,1066.9L1693.16,1043.43L1654.19,1055.64C1654.19,1055.64 1551.84,1030.28 1636.82,1034.98L1676.73,1020.89L1723.68,1066.9L1681.42,1073.95L1773.91,1082.87L1757.01,1035.92L1767.81,971.596L1813.35,966.431L1803.49,1037.8L1773.91,1082.87" style="fill:rgb(9,0,255);stroke:rgb(0,9,255);stroke-width:34.17px;"/>
            <path d="M1472.03,906.805L1513.34,973.943L1632.12,1013.85L1722.27,1003.99L1757.48,974.413L1780.49,949.999L1795.98,916.665" style="fill:rgb(9,0,255);stroke:rgb(0,9,255);stroke-width:34.17px;"/>
            <path d="M1795.98,916.665L1822.27,865.02C1822.27,865.02 1926.03,1019.49 1915.7,1034.51C1905.37,1049.53 1933.07,1162.68 1895.98,1168.32" style="fill:rgb(9,0,255);stroke:rgb(0,9,255);stroke-width:34.17px;"/>
            <path d="M1741.56,933.585L1769.85,892.04L1781.03,872.269L1800.65,842.292L1649.58,745.408L1500.52,870.683L1537.52,909.27L1576.64,927.242" style="fill:white;stroke:white;stroke-width:34.17px;"/>
            <path d="M1523.08,916.742L1576.64,927.242L1548.58,944.989L1582.45,958.439L1626.78,980.356L1649.2,982.349L1689.55,974.379L1725.91,956.944L1762.27,909.623L1582.45,958.439L1611.84,927.057L1642.72,920.581L1582.45,958.439L1576.97,967.405L1523.08,916.742Z" style="fill:white;stroke:white;stroke-width:34.17px;"/>
            <path d="M1895.98,1168.32C1895.98,1168.32 1865.47,1211.04 1764.52,1199.3C1764.52,1199.3 1731.19,1197.42 1683.77,1130.29" style="fill:rgb(9,0,255);stroke:rgb(0,9,255);stroke-width:34.17px;"/>
            <path d="M1798.8,1130.29L1782.36,1135.92C1782.36,1135.92 1607.24,1153.76 1757.01,1127.94C1906.78,1102.12 1836.83,1158.46 1836.83,1158.46L1798.8,1130.29Z" style="fill:rgb(9,0,255);stroke:rgb(0,9,255);stroke-width:34.17px;"/>
            <g transform="matrix(1,0,0,1,-2.41541,79.994)">
                <path d="M1653.54,1342.88C1653.54,1342.88 1652.89,1386.82 1653.54,1342.88C1654.26,1294.35 1657.34,1150.22 1657.34,1150.22" style="fill:none;stroke:black;stroke-width:118.17px;"/>
            </g>
            <g transform="matrix(0.50322,0.864158,-0.864158,0.50322,1550.56,-893.93)">
                <path d="M1524.08,889.765L1558.66,955.491L1489.5,955.491L1524.08,889.765Z" style="fill:white;stroke:black;stroke-width:8.48px;"/>
            </g>
            <g transform="matrix(0.757529,0.652801,-0.652801,0.757529,1002.54,-763.222)">
                <path d="M1524.08,889.765L1558.66,955.491L1489.5,955.491L1524.08,889.765Z" style="fill:white;stroke:black;stroke-width:8.48px;"/>
            </g>
            <g transform="matrix(0.999958,-0.00918514,0.00918514,0.999958,-4.05109,26.9209)">
                <path d="M1485.6,1463.62L1798.44,1477.78" style="fill:none;stroke:black;stroke-width:34.17px;"/>
            </g>
            <path d="M1807.88,1488.12L1809,1399.72L1652.88,1336.33L1493.23,1384.77L1490.88,1470.15" style="stroke:black;stroke-width:34.17px;"/>
            <g transform="matrix(0.9815,0.191464,-0.191464,0.9815,285.25,-240.819)">
                <path d="M1524.08,889.765L1558.66,955.491L1489.5,955.491L1524.08,889.765Z" style="fill:white;stroke:black;stroke-width:8.48px;"/>
            </g>
            <g transform="matrix(0.976973,-0.213362,0.213362,0.976973,-7.88969,382.506)">
                <path d="M1524.08,889.765L1558.66,955.491L1489.5,955.491L1524.08,889.765Z" style="fill:white;stroke:black;stroke-width:8.48px;"/>
            </g>
            <g transform="matrix(0.600995,-0.799252,0.799252,0.600995,79.6715,1581.28)">
                <path d="M1524.08,889.765L1558.66,955.491L1489.5,955.491L1524.08,889.765Z" style="fill:white;stroke:black;stroke-width:8.48px;"/>
            </g>
            <g transform="matrix(0.528333,-0.849037,0.849037,0.528333,179.054,1665.86)">
                <path d="M1524.08,889.765L1558.66,955.491L1489.5,955.491L1524.08,889.765Z" style="fill:white;stroke:black;stroke-width:8.48px;"/>
            </g>
            <g transform="matrix(-1,-0.000310803,0.000310803,-1,3230.28,2766.09)">
                <path d="M1573.45,1615.38C1636.82,1502.2 1763.58,1502.2 1826.95,1558.79C1890.33,1615.38 1890.33,1728.56 1826.95,1841.74C1782.59,1926.63 1668.51,2011.51 1573.45,2068.1C1478.38,2011.51 1364.3,1926.63 1319.94,1841.74C1256.56,1728.56 1256.56,1615.38 1319.94,1558.79C1383.32,1502.2 1510.07,1502.2 1573.45,1615.38Z" style="fill:white;fill-opacity:0.04;stroke:black;stroke-opacity:0.98;stroke-width:55.72px;"/>
            </g>
        </g>
    </g>
</svg>
